<svg xmlns="http://www.w3.org/2000/svg" viewBox="0 0 600 600"><defs><style>.cls-1{fill:#333;}.cls-2{fill:none;stroke:#fff;stroke-miterlimit:10;}.cls-3,.cls-4{font-size:18px;font-family:MyriadPro-Regular, Myriad Pro;}.cls-4{fill:#ff0;}</style></defs><g id="table_layer"><path class="cls-1" d="M300,599.5A299.5,299.5,0,0,1,88.22,88.22,299.5,299.5,0,0,1,511.78,511.78,297.54,297.54,0,0,1,300,599.5Z"/><path d="M300,1A299.08,299.08,0,0,1,416.38,575.5a299.07,299.07,0,0,1-232.76-551A297.11,297.11,0,0,1,300,1m0-1C134.31,0,0,134.31,0,300S134.31,600,300,600,600,465.69,600,300,465.69,0,300,0Z"/></g><g id="deviders"><line class="cls-2" x1="299.5" y1="2.5" x2="300.5" y2="296.5"/><line class="cls-2" x1="228.5" y1="590.5" x2="300.5" y2="296.5"/><line class="cls-2" x1="102.5" y1="524.5" x2="300.5" y2="296.5"/><line class="cls-2" x1="3.5" y1="265.5" x2="300.5" y2="296.5"/><line class="cls-2" x1="20.5" y1="406.5" x2="300.5" y2="296.5"/><line class="cls-2" x1="54.5" y1="131.5" x2="300.5" y2="296.5"/><line class="cls-2" x1="161.5" y1="36.5" x2="300.5" y2="296.5"/><line class="cls-2" x1="438.5" y1="36.5" x2="300.5" y2="296.5"/><line class="cls-2" x1="545.5" y1="131.5" x2="300.5" y2="296.5"/><line class="cls-2" x1="596.5" y1="265.5" x2="300.5" y2="296.5"/><line class="cls-2" x1="579.5" y1="406.5" x2="300.5" y2="296.5"/><line class="cls-2" x1="497.5" y1="524.5" x2="300.5" y2="296.5"/><line class="cls-2" x1="371.5" y1="589.5" x2="300.5" y2="296.5"/></g><g id="numbers_layer"><text class="cls-3" transform="translate(110.14 426.51) rotate(56.72)">1</text><text class="cls-3" transform="translate(70.41 323.95) rotate(82.09)">2</text><text class="cls-3" transform="translate(84.59 214.48) rotate(109.72)">3</text><text class="cls-3" transform="translate(146.69 124.25) rotate(137.16)">4</text><text class="cls-3" transform="matrix(-0.97, 0.24, -0.24, -0.97, 248.89, 70.97)">5</text><text class="cls-3" transform="translate(360.84 74.2) rotate(-168.66)">6</text><text class="cls-3" transform="translate(462.3 132.13) rotate(-136.8)">7</text><text class="cls-3" transform="translate(520.85 223.26) rotate(-109.48)">8</text><text class="cls-3" transform="matrix(0.14, -0.99, 0.99, 0.14, 529.06, 333.78)">9</text><text class="cls-3" transform="translate(483.02 438.04) rotate(-54.4)">10</text><text class="cls-3" transform="translate(396.42 507.88) rotate(-26.68)">11</text><text class="cls-3" transform="translate(291.26 527.3)">12</text><text class="cls-4" transform="matrix(0.9, 0.44, -0.44, 0.9, 189.9, 499.98)">13</text></g></svg>